<?xml version="1.0" encoding="UTF-8"?>
<svg data-name="Слой 1" viewBox="0 0 536.29 258.03" xmlns="http://www.w3.org/2000/svg">
<defs>
<style>.cls-1,.cls-8{fill:none;}.cls-2{clip-path:url(#c);}.cls-3{clip-path:url(#b);}.cls-4{clip-path:url(#a);}.cls-5,.cls-6{fill:#454a4e;}.cls-6{fill-rule:evenodd;}.cls-7{fill:#fff;}.cls-8{stroke:#fff;stroke-miterlimit:22.93;stroke-width:0.22px;}</style>
<clipPath id="c">
<rect class="cls-1" x="32.62" y="6.27" width="471.05" height="245.49"/>
</clipPath>
<clipPath id="b">
<rect class="cls-1" x="-322.4" y="6.27" width="859.89" height="613.28"/>
</clipPath>
<clipPath id="a">
<rect class="cls-1" x="-322.4" y="5.54" width="860" height="614"/>
</clipPath>
</defs>
<title>Монтажная область 2</title>
<g class="cls-3">
<g class="cls-4">
<path class="cls-5" d="M429.11,184.53c0,1.83.33,4.12.33,6.34,0,2.75-.19,5.82-.19,6.15a.72.72,0,0,0,.71.72c.59,0,1.64-.72,2.88-.72,2.36,0,4.25,3.66,11.65,3.66,7.65,0,15-4.7,15-12.88,0-7.26-7.45-11-14.26-14.59-3.92-2.09-10.79-5-10.79-9.81,0-3.66,4.32-6,8.64-6,5.1,0,10.2,2.81,10.2,7.52,0,.72-.07.92-.07,1.24a.69.69,0,0,0,.72.72c.59,0,1-.32,1-.72,0-1.83-.07-2.81-.07-5a10.4,10.4,0,0,1,1-4.32.67.67,0,0,0-.65-.72c-.66,0-1.7.72-2.88.72-1.57,0-5.82-1.24-9.35-1.24-6.87,0-13.67,3.53-13.67,10.46,0,6.61,7,9.68,12.75,12.89,4.45,2.48,12.43,6.54,12.43,11.64,0,4.84-5.17,8.24-11,8.24s-12.69-8-12.69-13.08a12.06,12.06,0,0,1,.13-1.24.77.77,0,0,0-.85-.72c-.39,0-.92.33-.92.72"/>
<path class="cls-5" d="M378.37,199.58c0,.39.26.59,1.05.59.45,0,4.31-.13,8.3-.13,4.65,0,8,.13,8.51.13.72,0,1-.2,1-.59a.58.58,0,0,0-.59-.59c-.33,0-.92.13-1.37.13a4.17,4.17,0,0,1-4.26-4.18V181.2c2,0,2.55.33,3.47,1.44l14,14.85c1.63,1.7,2.94,2.68,4.64,2.68,1,0,2.49-.13,3.47-.13,1.37,0,3,.13,4.38.13a.46.46,0,0,0,0-.92c-1.9,0-6.34-4.57-7.85-6.08l-11.77-12.23c6.15-1.05,11.57-4.84,11.57-12.36,0-8.5-8-12.76-15-12.76-2.88,0-5.69.14-8.64.2-4.05,0-9.48-.13-9.87-.13-.79,0-1.05.2-1.05.59a.58.58,0,0,0,.59.59c.33,0,.91-.13,1.37-.13a4.16,4.16,0,0,1,4.25,4.18v33.82a4.16,4.16,0,0,1-4.25,4.18c-.46,0-1-.13-1.37-.13a.58.58,0,0,0-.59.59M391,179.37V159.75c0-.92.07-1.37.46-1.64.66-.39,3.8-.39,4.58-.39,6.48,0,9.55,4.58,9.55,11.06,0,7.19-3.4,10.72-10.27,10.72C393.81,179.5,392.3,179.44,391,179.37Z"/>
<path class="cls-5" d="M324.34,199.71c0,.39.26.59,1,.59.46,0,3-.13,6.22-.13s5.88.13,6.41.13c.72,0,1-.2,1-.59a.58.58,0,0,0-.59-.59c-.33,0-.92.13-1.37.13-5.3,0-4.91-2.29-4.32-3.86l4.51-11.18c9.82-.74,16.88,2.42,20.21,10.85.82,2.06,1,4.19-3.86,4.19-.45,0-1-.13-1.37-.13a.58.58,0,0,0-.59.59c0,.39.26.59,1.05.59.46,0,5-.13,9-.13,5.3,0,8,.13,8.5.13.72,0,1-.2,1-.59a.58.58,0,0,0-.59-.59c-.32,0-.91.13-1.37.13-2.81,0-3.73-2.09-4.45-3.73l-16.41-40.09c-.79,0-2.62,4-5.37,4-.46,0,1.11,2.23,1.11,3a2.33,2.33,0,0,1-.19.92L331,195.06c-.72,1.9-2.36,4.19-4.71,4.19-.46,0-1.05-.13-1.37-.13a.58.58,0,0,0-.59.59M338,182.38l7.06-17.6,7.2,17.6A27.9,27.9,0,0,0,338,182.38Z"/>
<rect class="cls-5" x="306.03" y="176.1" width="14.98" height="3.06"/>
<path class="cls-5" d="M265.22,199.7c0,.4.27.59,1,.59.46,0,7.59-.13,11.58-.13h18c1.77,0,2.62.2,3.07.2a.72.72,0,0,0,.72-.72V198.2c0-4.06.46-7.92.46-9.35a.72.72,0,0,0-.72-.72.69.69,0,0,0-.72.72,10.36,10.36,0,0,1-4.45,8.17,11.28,11.28,0,0,1-6,1.31h-4.91c-4.18,0-5.49-.59-5.49-4.64V161.24a4.22,4.22,0,0,1,4.31-4.18c.46,0,1,.13,1.38.13a.59.59,0,0,0,.59-.59c0-.39-.27-.59-1-.59-.53,0-3.86.13-8.51.13-4,0-7.85-.13-8.3-.13-.79,0-1,.2-1,.59a.58.58,0,0,0,.59.59c.32,0,.91-.13,1.37-.13,2.49,0,4.19,1.83,4.19,3.46v34.54a4.18,4.18,0,0,1-4.25,4.19c-.46,0-1.05-.14-1.38-.14a.6.6,0,0,0-.59.59"/>
<path class="cls-5" d="M223.06,199.9c0,.39.26.59,1,.59.46,0,7.59-.13,11.58-.13h18c1.77,0,2.62.19,3.08.19a.71.71,0,0,0,.71-.72V198.4c0-4.06.46-7.92.46-9.36a.72.72,0,0,0-.72-.72.69.69,0,0,0-.72.72,10.35,10.35,0,0,1-4.44,8.18,11.33,11.33,0,0,1-6,1.31h-4.91c-4.18,0-5.49-.59-5.49-4.65v-15.3h7.06a4.35,4.35,0,0,1,4.19,4.44c0,.46-.13,1-.13,1.38a.58.58,0,0,0,.59.59c.39,0,.59-.26.59-1.05,0-.46-.14-3-.14-6.21s.14-5.89.14-6.41c0-.72-.2-1-.59-1a.58.58,0,0,0-.59.58c0,.33.13.92.13,1.38a4.36,4.36,0,0,1-4.19,4.45h-7.06V158.17h8a11.33,11.33,0,0,1,6,1.31,10.34,10.34,0,0,1,4.44,8.17.69.69,0,0,0,.72.72.72.72,0,0,0,.72-.72c0-1.44-.46-5.29-.46-9.35v-1.44a.72.72,0,0,0-.72-.72,23.5,23.5,0,0,1-3.07.2H235.68c-4,0-11.12-.13-11.58-.13-.78,0-1,.19-1,.59a.58.58,0,0,0,.58.58c.33,0,.92-.13,1.38-.13a4.17,4.17,0,0,1,4.25,4.19v33.82a4.16,4.16,0,0,1-4.25,4.18c-.46,0-1.05-.13-1.38-.13a.58.58,0,0,0-.58.59"/>
<path class="cls-5" d="M179.1,199.9c0,.39.26.59,1,.59.46,0,3.8-.13,11.58-.13,1.31,0,4.71.13,5.76.13,9.22,0,19.1-1.18,19.1-12.89,0-7.39-7.07-10.27-14.39-10.92,5.69-1.11,10.66-3.73,10.66-9.75,0-8.5-8-10.79-15-10.79-2.94,0-4.58.2-6.08.2-6.48,0-11.25-.13-11.65-.13-.78,0-1,.19-1,.59a.58.58,0,0,0,.59.58c.32,0,.91-.13,1.37-.13a4.17,4.17,0,0,1,4.25,4.19v33.82a4.16,4.16,0,0,1-4.25,4.18c-.46,0-1.05-.13-1.37-.13a.58.58,0,0,0-.59.59m12.62-25.64V160.07c0-1.7,1.24-2,4.25-2,6.48,0,9.55,2.62,9.55,9.09,0,7.2-3.33,8.9-10.27,8.9C192.05,176,191.79,175.83,191.72,174.26Zm0,20V177.79c10.4,0,17.53,2.23,17.53,10s-3.92,10.79-10.4,10.79C193,198.59,191.72,197.22,191.72,194.21Z"/>
<path class="cls-5" d="M135.1,199.9c0,.39.26.59,1.05.59.45,0,7.58-.13,11.57-.13h18.05c1.77,0,2.62.19,3.08.19a.72.72,0,0,0,.72-.72V198.4c0-4.06.46-7.92.46-9.36a.73.73,0,0,0-.72-.72.68.68,0,0,0-.72.72,10.36,10.36,0,0,1-4.45,8.18,11.31,11.31,0,0,1-6,1.31h-4.9c-4.19,0-5.5-.59-5.5-4.65v-15.3h7.07A4.35,4.35,0,0,1,159,183c0,.46-.13,1-.13,1.38a.58.58,0,0,0,.59.59c.39,0,.59-.26.59-1.05,0-.46-.13-3-.13-6.21s.13-5.89.13-6.41c0-.72-.2-1-.59-1a.58.58,0,0,0-.59.58c0,.33.13.92.13,1.38a4.35,4.35,0,0,1-4.18,4.45h-7.07V158.17h8a11.31,11.31,0,0,1,6,1.31,10.36,10.36,0,0,1,4.45,8.17.68.68,0,0,0,.72.72.72.72,0,0,0,.72-.72c0-1.44-.46-5.29-.46-9.35v-1.44a.73.73,0,0,0-.72-.72,24,24,0,0,1-3.08.2H147.72c-4,0-11.12-.13-11.57-.13-.79,0-1.05.19-1.05.59a.58.58,0,0,0,.59.58c.32,0,.91-.13,1.37-.13a4.17,4.17,0,0,1,4.25,4.19v33.82a4.16,4.16,0,0,1-4.25,4.18c-.46,0-1.05-.13-1.37-.13a.58.58,0,0,0-.59.59"/>
<path class="cls-5" d="M70,199.7c0,.4.26.59,1,.59.45,0,3-.13,6.21-.13s5.89.13,6.41.13c.72,0,1-.19,1-.59a.59.59,0,0,0-.59-.59c-.33,0-.91.14-1.37.14a4.32,4.32,0,0,1-4.45-4.19l1.31-33.16,16.15,38.52a.61.61,0,0,0,.53.26.57.57,0,0,0,.52-.26l16-39.57,1.3,34.21a4.13,4.13,0,0,1-4.25,4.19c-.46,0-1-.14-1.37-.14a.59.59,0,0,0-.59.59c0,.4.26.59,1,.59.45,0,4.31-.13,8.3-.13,4.65,0,8,.13,8.51.13.72,0,1-.19,1-.59a.59.59,0,0,0-.59-.59c-.33,0-.92.14-1.37.14a4.23,4.23,0,0,1-4.26-4.19l-1.3-33.82a4.12,4.12,0,0,1,4.25-4.18c.45,0,1,.13,1.37.13a.58.58,0,0,0,.59-.59c0-.39-.26-.59-1.05-.59-.26,0-1.24.13-3.86.13h-7.19a.8.8,0,0,0-.79.46L99.07,190c-.13.33-.26.66-.39.66s-.2-.2-.33-.46L84.35,157a1.39,1.39,0,0,0-1.44-.85H77.22c-3.07,0-4.38-.13-4.64-.13-.78,0-1,.2-1,.59a.59.59,0,0,0,.59.59c.33,0,1-.13,1.64-.13a3.9,3.9,0,0,1,4,4.18l-1.31,33.82A4.41,4.41,0,0,1,72,199.25c-.46,0-1-.14-1.37-.14a.59.59,0,0,0-.59.59"/>
<path class="cls-5" d="m398.69 225.43h1.21a3 3 0 0 0 2.14-0.69 2.61 2.61 0 0 0 0.73-2 2.45 2.45 0 0 0-0.74-2 3.36 3.36 0 0 0-2.15-0.6h-0.54l-0.65 0.06zm0 0.79v5.87a2.57 2.57 0 0 0 0.67 0.13h0.7a3.37 3.37 0 0 0 2.43-0.79 3 3 0 0 0 0.83-2.3 2.8 2.8 0 0 0-0.84-2.24 4.1 4.1 0 0 0-2.72-0.73c-0.36 0.03-0.76 0.04-1.07 0.06zm-3.36-6.81h2.44l1.46-0.06h1.37a5.38 5.38 0 0 1 3.2 0.79 2.63 2.63 0 0 1 1.09 2.26 3.26 3.26 0 0 1-2.56 3.24 4 4 0 0 1 2.3 1.11 3.1 3.1 0 0 1 0.81 2.2 3.51 3.51 0 0 1-1.41 3 6.3 6.3 0 0 1-3.9 1.06h-1.07-1.3-2.4v-0.41l1.18-0.36a0.3 0.3 0 0 0 0.26-0.3v-0.86-9.78-0.72a0.32 0.32 0 0 0-0.23-0.33l-1.19-0.38zm-6.89 6.48a7.56 7.56 0 0 1-1.9 5.38 6.9 6.9 0 0 1-5.3 2 6.55 6.55 0 0 1-5-1.88 7.12 7.12 0 0 1-1.77-5.09 7.24 7.24 0 0 1 1.91-5.29 7 7 0 0 1 5.28-1.95 6.68 6.68 0 0 1 5 1.82 6.86 6.86 0 0 1 1.78 5.01zm-11.85 0.12a7.82 7.82 0 0 0 1.27 4.82 4.39 4.39 0 0 0 3.73 1.68 4.21 4.21 0 0 0 3.58-1.52 7.92 7.92 0 0 0 1.15-4.77 7.75 7.75 0 0 0-1.22-4.69 4.41 4.41 0 0 0-3.78-1.65 4.2 4.2 0 0 0-3.61 1.52 7.76 7.76 0 0 0-1.12 4.6zm-19.4 0.23v3.76 1.92a0.32 0.32 0 0 0 0.25 0.33l1.07 0.34v0.41h-2.3-2.39v-0.41l1.18-0.36a0.33 0.33 0 0 0 0.27-0.3v-1.92-7.84-1.6a0.34 0.34 0 0 0-0.24-0.33l-1.19-0.38v-0.41h2.39s1.54 0 2.29 0l0.05 0.41-1.1 0.34a0.29 0.29 0 0 0-0.25 0.3v1.63 3.28h7v-3.28-1.63a0.31 0.31 0 0 0-0.26-0.3l-1.07-0.34v-0.41h2.33s1.55 0 2.36 0v0.41l-1.22 0.38a0.32 0.32 0 0 0-0.23 0.33v1.6 7.83 1.92a0.31 0.31 0 0 0 0.26 0.3l1.17 0.36v0.41h-2.44-2.25v-0.41l1.09-0.34a0.33 0.33 0 0 0 0.26-0.33v-1.92-3.72zm-18.13 0.83h4l-1.88-5.33zm3.08-7.86 4.3 11.81a3.36 3.36 0 0 0 0.43 0.91 1.29 1.29 0 0 0 0.57 0.35l0.91 0.27v0.41h-2.35-2.6v-0.41l0.92-0.27a1 1 0 0 0 0.28-0.15 0.38 0.38 0 0 0 0.08-0.26 2 2 0 0 0-0.1-0.51l-0.29-0.83-0.91-2.59h-4.68l-1 2.58c-0.14 0.36-0.24 0.65-0.32 0.86a1.46 1.46 0 0 0-0.11 0.5 0.33 0.33 0 0 0 0.09 0.25 0.84 0.84 0 0 0 0.27 0.14l0.9 0.26v0.43h-2.24-1.94l-0.05-0.41 1-0.3a1.06 1.06 0 0 0 0.55-0.36 4.22 4.22 0 0 0 0.38-0.75l4.94-11.78zm-19.46 6.22h1.21a3 3 0 0 0 2.14-0.69 2.65 2.65 0 0 0 0.73-2 2.43 2.43 0 0 0-0.75-2 3.33 3.33 0 0 0-2.14-0.6h-0.55l-0.64 0.06zm0 0.79v5.87a2.49 2.49 0 0 0 0.67 0.13h0.69a3.41 3.41 0 0 0 2.44-0.79 3.05 3.05 0 0 0 0.83-2.3 2.8 2.8 0 0 0-0.84-2.24 4.12 4.12 0 0 0-2.72-0.73c-0.37 0.03-0.75 0.04-1.07 0.06zm-3.37-6.81h2.44l1.47-0.06h1.36a5.43 5.43 0 0 1 3.21 0.79 2.62 2.62 0 0 1 1.08 2.26 3.25 3.25 0 0 1-2.56 3.24 4 4 0 0 1 2.31 1.11 3.1 3.1 0 0 1 0.81 2.2 3.51 3.51 0 0 1-1.41 3 6.34 6.34 0 0 1-3.9 1.06h-1.07-1.3-2.4v-0.41l1.19-0.36a0.31 0.31 0 0 0 0.26-0.3v-0.86-9.78-0.72a0.33 0.33 0 0 0-0.23-0.33l-1.2-0.38zm-17.39 11v1.47a0.32 0.32 0 0 0 0.27 0.33l1.08 0.34v0.41q-1.16 0-2.31 0h-2.4v-0.41l1.18-0.36a0.31 0.31 0 0 0 0.26-0.3v-1.92-7.84-1.6a0.32 0.32 0 0 0-0.23-0.33l-1.19-0.38v-0.41h2.39s1.54 0 2.3 0l0.05 0.41-1.11 0.34a0.3 0.3 0 0 0-0.25 0.3v1.63 6.91l7.19-7.61v-0.95q0-0.22-0.27-0.3l-1.07-0.34v-0.41h2.34s1.56 0 2.37 0v0.41l-1.21 0.38a0.32 0.32 0 0 0-0.23 0.33v1.6 7.89q0 1.14 0 1.92a0.31 0.31 0 0 0 0.26 0.3l1.17 0.36v0.42h-2.44q-1.16 0-2.25 0l-0.05-0.41 1.1-0.34a0.32 0.32 0 0 0 0.25-0.33v-1.91-7.21zm-21.19 2.53-0.8 4.07-0.52 0.07-0.55-4.94 0.06-0.07h1.56a7.35 7.35 0 0 0 1-1.52 15 15 0 0 0 0.89-1.94c0.26-0.69 0.48-1.41 0.68-2.15s0.35-1.48 0.48-2.19 0.23-1.39 0.3-2 0.1-1.2 0.1-1.7c0-0.16-0.1-0.26-0.28-0.31l-1.51-0.41v-0.41h2.17 4.75 2.39v0.41l-1.18 0.36a0.35 0.35 0 0 0-0.27 0.31v0.86s0 0.67 0 1.06v7.82 0.91s0 0.46 0 0.6 0.08 0.33 0.22 0.33h1.78l0.06 0.07-0.54 4.87-0.51 0.07-0.81-4.14zm7.42-0.87v-11.75h-3.15c-0.07 1-0.17 2-0.29 3a26 26 0 0 1-0.54 3 22.17 22.17 0 0 1-0.91 2.94 15.25 15.25 0 0 1-1.46 2.8zm-27.64-5h4l-1.88-5.33zm3.09-7.86 4.29 11.79a3 3 0 0 0 0.44 0.91 1.25 1.25 0 0 0 0.56 0.35l0.91 0.27v0.41h-2.35-2.6v-0.41l0.92-0.27a1 1 0 0 0 0.28-0.15 0.38 0.38 0 0 0 0.08-0.26 2 2 0 0 0-0.1-0.51c-0.07-0.21-0.16-0.48-0.29-0.83l-0.91-2.59h-4.65l-1 2.58c-0.13 0.36-0.24 0.65-0.32 0.86a1.75 1.75 0 0 0-0.11 0.5 0.33 0.33 0 0 0 0.09 0.25 0.8 0.8 0 0 0 0.28 0.14l0.89 0.26v0.43h-2.24-1.94l-0.05-0.41 1-0.3a1.08 1.08 0 0 0 0.54-0.36 4.22 4.22 0 0 0 0.38-0.75l4.94-11.78zm-20.6 7.44v3.35 1s0 0.59 0 0.84a0.37 0.37 0 0 0 0.25 0.38l1.08 0.32v0.41q-1.16 0-2.31 0h-2.4v-0.41l1.18-0.36a0.3 0.3 0 0 0 0.26-0.3v-0.86-9.78-0.72a0.32 0.32 0 0 0-0.23-0.33l-1.19-0.38v-0.41h1.22 2.32 1.15l0.05 0.41-1.11 0.34a0.3 0.3 0 0 0-0.25 0.3v0.76s0 0.56 0 0.88v3.7h1 0.79a2.49 2.49 0 0 0 0.65-0.14 1.64 1.64 0 0 0 0.54-0.32 2.43 2.43 0 0 0 0.44-0.56 4.9 4.9 0 0 0 0.39-0.88c0.12-0.35 0.25-0.77 0.38-1.27s0.24-0.95 0.34-1.31a7 7 0 0 1 0.3-0.89 1.86 1.86 0 0 1 0.3-0.55 1 1 0 0 1 0.35-0.29 1.41 1.41 0 0 1 0.48-0.11h0.68c0.55 0 1.14 0 1.77 0.07v0.6a3.36 3.36 0 0 0-1.13 0.2 2.34 2.34 0 0 0-0.79 0.51 3.45 3.45 0 0 0-0.59 0.82c-0.17 0.33-0.35 0.7-0.53 1.11s-0.27 0.6-0.41 0.9-0.29 0.57-0.45 0.84a6.09 6.09 0 0 1-0.53 0.74 2.93 2.93 0 0 1-0.64 0.58c0.47 0.68 0.89 1.35 1.28 2s0.75 1.25 1.07 1.8 0.59 1 0.85 1.35a5.76 5.76 0 0 0 0.71 0.9 2.63 2.63 0 0 0 0.34 0.28 1.68 1.68 0 0 0 0.34 0.2 1.92 1.92 0 0 0 0.36 0.14l0.45 0.12v0.42a9.41 9.41 0 0 1-1.16 0.09h-0.7a3.6 3.6 0 0 1-0.53-0.07 2.41 2.41 0 0 1-0.43-0.15 1.41 1.41 0 0 1-0.36-0.24 3.69 3.69 0 0 1-0.86-1 16.48 16.48 0 0 1-0.89-1.48c-0.25-0.45-0.51-0.91-0.77-1.39s-0.55-1-0.86-1.43l-0.2-0.38a0.88 0.88 0 0 0-0.21-0.22 0.83 0.83 0 0 0-0.25-0.12 1.73 1.73 0 0 0-0.36 0zm-20.75 3.76v1.47a0.32 0.32 0 0 0 0.27 0.33l1.07 0.34v0.41h-2.3-2.4v-0.41l1.19-0.36a0.32 0.32 0 0 0 0.26-0.3v-1.92-7.84-1.6a0.33 0.33 0 0 0-0.23-0.33l-1.2-0.38v-0.41h2.4s1.54 0 2.29 0l0.05 0.41-1.1 0.34a0.3 0.3 0 0 0-0.25 0.3v1.63 6.91l7.18-7.61v-0.95q0-0.22-0.27-0.3l-1.07-0.34v-0.41h2.35s1.56 0 2.36 0v0.41l-1.22 0.38a0.33 0.33 0 0 0-0.23 0.33v1.6 7.89q0 1.14 0 1.92a0.32 0.32 0 0 0 0.26 0.3l1.17 0.36v0.41h-2.44-2.26v-0.41l1.1-0.34a0.31 0.31 0 0 0 0.25-0.33v-1.91-7.2zm-16.32-0.41v1 0.83a0.32 0.32 0 0 0 0.25 0.3l1.33 0.41v0.41h-2.55-2.4v-0.41l1.19-0.36a0.32 0.32 0 0 0 0.26-0.3v-0.86-9.78-0.72a0.33 0.33 0 0 0-0.23-0.33l-1.2-0.38v-0.41h2.44 1.54s1 0 1.36 0a5.73 5.73 0 0 1 3.47 0.89 3.15 3.15 0 0 1 1.17 2.66 4 4 0 0 1-1.36 3.23 5.69 5.69 0 0 1-3.81 1.15c-0.44 0-0.93 0-1.44-0.08zm0-3.57a8.62 8.62 0 0 0 1.33 0.11 3.14 3.14 0 0 0 2.35-0.8 3.27 3.27 0 0 0 0.81-2.43 3.19 3.19 0 0 0-0.77-2.35 3.31 3.31 0 0 0-2.42-0.77 11.48 11.48 0 0 0-1.3 0.08zm-16.88 5.74a9.78 9.78 0 0 0 1.41 0.11 3.54 3.54 0 0 0 2.47-0.78 3.08 3.08 0 0 0 0.85-2.36 3 3 0 0 0-0.81-2.28 3.62 3.62 0 0 0-2.54-0.75c-0.39 0-0.85 0-1.38 0.08zm4.44-11.84h-4.44v5c0.62 0 1.23-0.08 1.83-0.08a6.49 6.49 0 0 1 3.77 0.87 3 3 0 0 1 1.21 2.59 3.8 3.8 0 0 1-1.4 3.17 6.21 6.21 0 0 1-3.91 1.1h-1.1-1.33-2.4v-0.41l1.19-0.36a0.32 0.32 0 0 0 0.26-0.3v-0.86-9.78-0.72a0.33 0.33 0 0 0-0.23-0.33l-1.2-0.38v-0.41h2.4 4.77 2.25l0.06 0.08-0.64 3.24-0.39 0.06zm-22.57 6.77h4l-1.92-5.36zm3.08-7.86 4.29 11.76a3.31 3.31 0 0 0 0.44 0.91 1.23 1.23 0 0 0 0.57 0.35l0.91 0.27v0.47h-2.34-2.6v-0.41l0.91-0.27a0.87 0.87 0 0 0 0.28-0.15 0.38 0.38 0 0 0 0.08-0.26 1.67 1.67 0 0 0-0.1-0.51l-0.28-0.83-0.91-2.59h-4.66l-1 2.58c-0.14 0.36-0.24 0.65-0.32 0.86a1.53 1.53 0 0 0-0.12 0.5 0.33 0.33 0 0 0 0.09 0.25 1 1 0 0 0 0.28 0.14l0.9 0.26v0.43h-2.24-1.95v-0.41l1-0.3a1 1 0 0 0 0.54-0.36 3.58 3.58 0 0 0 0.39-0.75l4.84-11.82zm-23.29 6.59a4.39 4.39 0 0 0 0.77 2.82 4 4 0 0 0 2.85 1.14v-7.79c-1.49 0.08-2.46 0.43-2.92 1a4.43 4.43 0 0 0-0.7 2.8zm5.52-3.75v7.74a4 4 0 0 0 2.88-1 4.32 4.32 0 0 0 0.76-2.85 4.72 4.72 0 0 0-0.68-2.71c-0.46-0.7-1.44-1.09-2.96-1.21zm5.76 3.66a4.16 4.16 0 0 1-1.42 3.32 7.18 7.18 0 0 1-4.34 1.41v1.46c0 0.15 0.12 0.27 0.35 0.34l1.11 0.33v0.39h-2.41-2.4l-0.05-0.39 1.19-0.36c0.19-0.05 0.29-0.15 0.29-0.3v-1.44a7.37 7.37 0 0 1-4.4-1.29 3.93 3.93 0 0 1-1.34-3.17 4.1 4.1 0 0 1 1.34-3.22 7.24 7.24 0 0 1 4.4-1.4v-1.22a0.32 0.32 0 0 0-0.26-0.31l-1.19-0.38v-0.4h2.41 2.4l0.05 0.4-1.2 0.36c-0.19 0-0.28 0.14-0.28 0.29v1.21a7.31 7.31 0 0 1 4.43 1.25 3.85 3.85 0 0 1 1.33 3.09z"/>
<rect class="cls-5" x="71.53" y="224.47" width="72.46" height="3.06"/>
<path class="cls-6" d="m473.29 155.62a9.21 9.21 0 1 1-9.22 9.21 9.21 9.21 0 0 1 9.22-9.21"/>
<path class="cls-7" d="M473.59,161.68a.09.09,0,0,0,.09.09l.19,0a.6.6,0,0,1,.62.6v3c0,1.76.93,2.75,2.48,2.75s2.5-1,2.5-3.06v-2.67a.63.63,0,0,1,.65-.6l.2,0a.08.08,0,0,0,.08-.09c0-.06,0-.09-.14-.09l-.93,0c-.46,0-.83,0-.9,0s-.15,0-.15.09a.09.09,0,0,0,.08.09l.2,0a.63.63,0,0,1,.65.6v3c0,1.29-.58,2.38-2,2.38-1.14,0-1.79-1-1.79-2.33v-3.05a.6.6,0,0,1,.62-.6l.2,0a.08.08,0,0,0,.08-.09c0-.06,0-.09-.14-.09s-.56,0-1.23,0l-1.21,0C473.63,161.59,473.59,161.62,473.59,161.68ZM469.78,165v-2.85c0-.13,0-.19.07-.23a2.42,2.42,0,0,1,.66-.06c.94,0,1.39.66,1.39,1.6s-.49,1.56-1.49,1.56ZM468,167.93c0,.06,0,.09.15.09l1.21,0c.67,0,1.16,0,1.23,0s.15,0,.15-.09a.09.09,0,0,0-.09-.08l-.2,0a.61.61,0,0,1-.62-.61v-2c.29,0,.37,0,.51.21l2,2.15a.94.94,0,0,0,.67.39l.5,0,.64,0a.07.07,0,0,0,.07-.07.07.07,0,0,0-.07-.06c-.27,0-.92-.67-1.14-.89l-1.71-1.77a1.79,1.79,0,0,0,1.68-1.79,2,2,0,0,0-2.17-1.86c-.42,0-.83,0-1.25,0l-1.44,0c-.11,0-.15,0-.15.09a.09.09,0,0,0,.09.09l.2,0a.6.6,0,0,1,.61.6v4.91a.6.6,0,0,1-.61.61l-.2,0A.09.09,0,0,0,468,167.93Zm-1.78-.44a.53.53,0,0,0,.54.54.52.52,0,0,0,.5-.54.51.51,0,0,0-.5-.5A.52.52,0,0,0,466.17,167.49Z"/>
<path class="cls-8" d="M473.59,161.68a.09.09,0,0,0,.09.09l.19,0a.6.6,0,0,1,.62.6v3c0,1.76.93,2.75,2.48,2.75s2.5-1,2.5-3.06v-2.67a.63.63,0,0,1,.65-.6l.2,0a.08.08,0,0,0,.08-.09c0-.06,0-.09-.14-.09l-.93,0c-.46,0-.83,0-.9,0s-.15,0-.15.09a.09.09,0,0,0,.08.09l.2,0a.63.63,0,0,1,.65.6v3c0,1.29-.58,2.38-2,2.38-1.14,0-1.79-1-1.79-2.33v-3.05a.6.6,0,0,1,.62-.6l.2,0a.08.08,0,0,0,.08-.09c0-.06,0-.09-.14-.09s-.56,0-1.23,0l-1.21,0C473.63,161.59,473.59,161.62,473.59,161.68ZM469.78,165v-2.85c0-.13,0-.19.07-.23a2.42,2.42,0,0,1,.66-.06c.94,0,1.39.66,1.39,1.6s-.49,1.56-1.49,1.56ZM468,167.93c0,.06,0,.09.15.09l1.21,0c.67,0,1.16,0,1.23,0s.15,0,.15-.09a.09.09,0,0,0-.09-.08l-.2,0a.61.61,0,0,1-.62-.61v-2c.29,0,.37,0,.51.21l2,2.15a.94.94,0,0,0,.67.39l.5,0,.64,0a.07.07,0,0,0,.07-.07.07.07,0,0,0-.07-.06c-.27,0-.92-.67-1.14-.89l-1.71-1.77a1.79,1.79,0,0,0,1.68-1.79,2,2,0,0,0-2.17-1.86c-.42,0-.83,0-1.25,0l-1.44,0c-.11,0-.15,0-.15.09a.09.09,0,0,0,.09.09l.2,0a.6.6,0,0,1,.61.6v4.91a.6.6,0,0,1-.61.61l-.2,0A.09.09,0,0,0,468,167.93Zm-1.78-.44a.53.53,0,0,0,.54.54.52.52,0,0,0,.5-.54.51.51,0,0,0-.5-.5A.52.52,0,0,0,466.17,167.49Z"/>
<rect class="cls-5" x="410.04" y="224.53" width="72.46" height="3.06"/>
<path class="cls-6" d="M159.72,139.66h20.63a.59.59,0,0,1,.59.59v.84a.58.58,0,0,1-.59.58H159.72a.58.58,0,0,1-.58-.58v-.84a.59.59,0,0,1,.58-.59"/>
<path class="cls-6" d="M373.68,139.66h20.63a.59.59,0,0,1,.59.59v.84a.58.58,0,0,1-.59.58H373.68a.58.58,0,0,1-.58-.58v-.84a.59.59,0,0,1,.58-.59"/>
<path class="cls-6" d="m241.38 122.13h-58.74a20.47 20.47 0 0 0-4.4-11.11c19.61-3.13 43.58-2.27 63.14 0z"/>
<path class="cls-6" d="M173.39,101.65h68V109a297.89,297.89,0,0,0-64.85-.32c-.07,0-.17.07-.21,0a23.69,23.69,0,0,0-2.93-2.7Z"/>
<path class="cls-6" d="m312.66 122.13h58.73a20.55 20.55 0 0 1 4.4-11.11c-19.61-3.13-43.58-2.27-63.13 0z"/>
<path class="cls-6" d="M380.64,101.65h-68V109a297.89,297.89,0,0,1,64.85-.32c.07,0,.17.07.21,0a23.69,23.69,0,0,1,2.93-2.7Z"/>
<path class="cls-6" d="m243.38 111a293.29 293.29 0 0 1 67.27 0v11.11h-67.27z"/>
<path class="cls-6" d="M180.35,82h54.07a7,7,0,0,1,7,7v12.69h-68V89a7,7,0,0,1,6.95-7"/>
<path class="cls-6" d="M250.62,82h52.8a7.25,7.25,0,0,1,7.23,7.23V109a291.05,291.05,0,0,0-67.27,0V89.22A7.26,7.26,0,0,1,250.62,82"/>
<path class="cls-6" d="M319.61,82h54.07a7,7,0,0,1,7,7v12.69h-68V89a7,7,0,0,1,6.95-7"/>
<path class="cls-6" d="M241.38,101l-68-.37V106a23.69,23.69,0,0,1,2.93,2.7c0,.05.14,0,.21,0a297.89,297.89,0,0,1,64.85.32V101"/>
<path class="cls-6" d="M312.65,101.64V109a297.89,297.89,0,0,1,64.85-.32c.07,0,.17.07.21,0a23.69,23.69,0,0,1,2.93-2.7v-5.08l-68-.58Z"/>
<path class="cls-6" d="M241.38,101.64V89a7,7,0,0,0-7-7H180.35a7,7,0,0,0-6.95,7v12.69Z"/>
<path class="cls-6" d="M243.38,89.22V109a291.05,291.05,0,0,1,67.27,0V89.22A7.25,7.25,0,0,0,303.42,82h-52.8a7.26,7.26,0,0,0-7.24,7.23"/>
<path class="cls-6" d="M312.66,89v12.69h68V89a7,7,0,0,0-7-7H319.61a7,7,0,0,0-6.95,7"/>
<path class="cls-6" d="M241.38,122.13V111c-19.56-2.27-43.53-3.13-63.14,0a20.47,20.47,0,0,1,4.4,11.11Z"/>
<path class="cls-6" d="M243.38,111v11.11h67.27V111a293.29,293.29,0,0,0-67.27,0"/>
<path class="cls-6" d="m312.66 111v11.11h58.73a20.55 20.55 0 0 1 4.4-11.11c-19.61-3.13-43.58-2.27-63.13 0"/>
<path class="cls-6" d="M394.31,139.66H373.68a.59.59,0,0,0-.58.59v.84a.58.58,0,0,0,.58.58h20.63a.58.58,0,0,0,.59-.58v-.84a.59.59,0,0,0-.59-.59"/>
<path class="cls-6" d="M180.94,141.09v-.84a.59.59,0,0,0-.59-.59H159.72a.59.59,0,0,0-.58.59v.84a.58.58,0,0,0,.58.58h20.63a.58.58,0,0,0,.59-.58"/>
<path class="cls-6" d="m161.9 137.66h230.23a2.78 2.78 0 0 0 2.77-2.77v-7.75-0.5a2.76 2.76 0 0 0-2.75-2.5h-230.25a2.76 2.76 0 0 0-2.76 2.93v7.82a2.77 2.77 0 0 0 2.76 2.77"/>
<path class="cls-6" d="m181 124.46c-0.62-10.86-11.47-20.17-19.48-22.42-5.06-1.42-7.09 1-5.66 5.52 1.61 5 2.94 8.62 3.3 14.11v4.34 1.06z"/>
<path class="cls-6" d="M373,124.14l21.88,2.5c0-1.32-.05-4.26,0-5,.36-5.49,1.68-9.07,3.29-14.11,1.44-4.5-.59-6.94-5.66-5.52-8,2.24-18.78,11.31-19.5,22.1"/>
</g>
</g>

</svg>
