<svg enable-background="new 0 0 512.18 512.18" version="1.1" viewBox="0 0 512.18 512.18" xml:space="preserve" xmlns="http://www.w3.org/2000/svg">
									<path d="m511.82 170.19c-0.14-1.786-0.298-3.155-0.44-4.095-7.165-81.141-66.694-145.37-143.95-145.37-44.758 0-85.66 21.18-112.44 55.516-26.157-34.567-65.501-55.516-110.02-55.516-76.994 0-136.39 63.79-144.03 145.83-0.147 0.956-0.295 2.12-0.43 3.489-1.307 13.254-0.22 30.816 4.831 52.214 10.732 45.463 35.828 86.871 71.224 118.96l164.83 144.92c8.028 7.059 20.042 7.085 28.101 0.062l166.04-144.68c39.134-40.728 62.393-77.366 71.616-119.58 4.627-21.202 5.704-38.649 4.681-51.742zm-46.365 42.642c-7.254 33.204-26.552 63.603-59.352 97.843l-150.56 131.1-150.57-132.38c-28.881-26.184-49.406-60.051-58.113-96.933-3.953-16.747-4.747-29.585-3.895-38.225 0.075-0.764 0.393-3.072 0.393-3.072 5.488-61.777 48.117-107.76 101.61-107.76 39.823 0 73.704 24.287 90.17 63.294 7.338 17.382 31.97 17.382 39.308 0 16.136-38.225 52.419-63.294 92.986-63.294 53.494 0 96.121 45.99 101.61 107.79 0.147 1.242 0.187 1.586 0.245 2.333 0.705 9.025-0.114 22.295-3.828 39.317z"/>
								</svg>	