<svg xmlns="http://www.w3.org/2000/svg" viewBox="0 0 273.81 141.86"><defs><style>.cls-1{fill:#64a0c2;}.cls-2{fill:none;stroke:#0e0e0e;stroke-linecap:round;stroke-linejoin:round;stroke-width:3px;}</style></defs><title>Ресурс 3</title><g id="Слой_2" data-name="Слой 2"><g id="Color_7" data-name="Color 7"><path class="cls-1" d="M265.3,55.93l-8.43-1.59a8.5,8.5,0,0,0-5.29.7s0,0-.07,0a8.52,8.52,0,0,0-4.67,6.12l-.16.84a95.85,95.85,0,0,0-12.9-30.29C223,15.45,207.06,4.59,186.75,2.21,141.21-3.15,120.1,23.1,111.13,41c-3.34,6.67-11.27,9.15-18.12,6.2C66,35.6,38.15,42,27,61.5L27,61.19A8.51,8.51,0,0,0,22.23,55l-.07,0A8.6,8.6,0,0,0,17,54.34L8.5,55.93A8.59,8.59,0,0,0,1.65,66L11.05,116a8.61,8.61,0,0,0,8.45,7H44.71v17.36h9.45L57.59,123H216.21l3.44,17.36h9.45V123h25.22a8.59,8.59,0,0,0,8.44-7l9.4-50A8.58,8.58,0,0,0,265.3,55.93Z"/></g><g id="Line_7" data-name="Line 7"><path class="cls-2" d="M33.75,101.37l-1.2-7.5-1.28-8L29.2,73,27,61.5,27,61.19A8.51,8.51,0,0,0,22.23,55l-.07,0A8.6,8.6,0,0,0,17,54.34L8.5,55.93A8.59,8.59,0,0,0,1.65,66L11.05,116a8.61,8.61,0,0,0,8.45,7H254.32a8.59,8.59,0,0,0,8.44-7l9.4-50a8.58,8.58,0,0,0-6.86-10l-8.43-1.59a8.5,8.5,0,0,0-5.29.7s0,0-.07,0a8.52,8.52,0,0,0-4.67,6.12l-.16.84-2.33,12.4L242.53,85.9l-1.27,8-1.19,7.5"/><polygon class="cls-2" points="54.16 140.36 44.71 140.36 44.71 123 57.59 123 54.16 140.36"/><polygon class="cls-2" points="219.65 140.36 229.1 140.36 229.1 123 216.21 123 219.65 140.36"/><line class="cls-2" x1="176.81" y1="49.61" x2="174.75" y2="47.55"/><line class="cls-2" x1="169.99" y1="42.8" x2="167.93" y2="40.74"/><line class="cls-2" x1="169.99" y1="47.55" x2="167.93" y2="49.61"/><line class="cls-2" x1="176.81" y1="40.74" x2="174.75" y2="42.8"/><circle class="cls-2" cx="172.37" cy="45.17" r="3.37"/><line class="cls-2" x1="176.81" y1="25.32" x2="174.75" y2="23.26"/><line class="cls-2" x1="169.99" y1="18.51" x2="167.93" y2="16.45"/><line class="cls-2" x1="169.99" y1="23.26" x2="167.93" y2="25.32"/><line class="cls-2" x1="176.81" y1="16.45" x2="174.75" y2="18.51"/><circle class="cls-2" cx="172.37" cy="20.88" r="3.37"/><line class="cls-2" x1="141.38" y1="49.61" x2="139.32" y2="47.55"/><line class="cls-2" x1="134.56" y1="42.8" x2="132.5" y2="40.74"/><line class="cls-2" x1="134.56" y1="47.55" x2="132.5" y2="49.61"/><line class="cls-2" x1="141.38" y1="40.74" x2="139.32" y2="42.8"/><circle class="cls-2" cx="136.94" cy="45.17" r="3.37"/><line class="cls-2" x1="212.19" y1="49.61" x2="210.13" y2="47.55"/><line class="cls-2" x1="205.37" y1="42.8" x2="203.31" y2="40.74"/><line class="cls-2" x1="205.37" y1="47.55" x2="203.31" y2="49.61"/><line class="cls-2" x1="212.19" y1="40.74" x2="210.13" y2="42.8"/><circle class="cls-2" cx="207.75" cy="45.17" r="3.37"/><line class="cls-2" x1="176.81" y1="73.9" x2="174.75" y2="71.84"/><line class="cls-2" x1="169.99" y1="67.09" x2="167.93" y2="65.03"/><line class="cls-2" x1="169.99" y1="71.84" x2="167.93" y2="73.9"/><line class="cls-2" x1="176.81" y1="65.03" x2="174.75" y2="67.09"/><circle class="cls-2" cx="172.37" cy="69.46" r="3.37"/><line class="cls-2" x1="141.38" y1="73.9" x2="139.32" y2="71.84"/><line class="cls-2" x1="134.56" y1="67.09" x2="132.5" y2="65.03"/><line class="cls-2" x1="134.56" y1="71.84" x2="132.5" y2="73.9"/><line class="cls-2" x1="141.38" y1="65.03" x2="139.32" y2="67.09"/><circle class="cls-2" cx="136.94" cy="69.46" r="3.37"/><line class="cls-2" x1="105.94" y1="73.9" x2="103.88" y2="71.84"/><line class="cls-2" x1="99.12" y1="67.09" x2="97.06" y2="65.03"/><line class="cls-2" x1="99.12" y1="71.84" x2="97.06" y2="73.9"/><line class="cls-2" x1="105.94" y1="65.03" x2="103.88" y2="67.09"/><circle class="cls-2" cx="101.5" cy="69.46" r="3.37"/><line class="cls-2" x1="70.51" y1="73.9" x2="68.45" y2="71.84"/><line class="cls-2" x1="63.69" y1="67.09" x2="61.63" y2="65.03"/><line class="cls-2" x1="63.69" y1="71.84" x2="61.63" y2="73.9"/><line class="cls-2" x1="70.51" y1="65.03" x2="68.45" y2="67.09"/><circle class="cls-2" cx="66.07" cy="69.46" r="3.37"/><line class="cls-2" x1="212.19" y1="73.9" x2="210.13" y2="71.84"/><line class="cls-2" x1="205.37" y1="67.09" x2="203.31" y2="65.03"/><line class="cls-2" x1="205.37" y1="71.84" x2="203.31" y2="73.9"/><line class="cls-2" x1="212.19" y1="65.03" x2="210.13" y2="67.09"/><circle class="cls-2" cx="207.75" cy="69.46" r="3.37"/><line class="cls-2" x1="240.07" y1="101.37" x2="33.75" y2="101.37"/><line class="cls-2" x1="242.53" y1="85.9" x2="31.27" y2="85.9"/><path class="cls-2" d="M242.53,85.9l1.82-11.47L246.68,62a95.85,95.85,0,0,0-12.9-30.29C223,15.45,207.06,4.59,186.75,2.21,141.21-3.15,120.1,23.1,111.13,41c-3.34,6.67-11.27,9.15-18.12,6.2C66,35.6,38.15,42,27,61.5L29.2,73,31.27,85.9"/></g></g></svg>