<svg xmlns="http://www.w3.org/2000/svg" viewBox="0 0 133 124.83"><defs><style>.cls-1{fill:#64a0c2;}.cls-2{fill:none;stroke:#0e0e0e;stroke-linecap:round;stroke-linejoin:round;stroke-width:3px;}</style></defs><title>Ресурс 2</title><g id="Слой_2" data-name="Слой 2"><g id="Color_2" data-name="Color 2"><path class="cls-1" d="M121.5,33.78h-5V11.5a10,10,0,0,0-10-10h-80a10,10,0,0,0-10,10V33.78h-5a10,10,0,0,0-10,10v67.67a5,5,0,0,0,5,5H9.36l1,6.88h11l1-6.88H26.5a5,5,0,0,0,5-5v-.23h70v.23a5,5,0,0,0,5,5h4.14l1,6.88h11l1-6.88h2.86a5,5,0,0,0,5-5V43.78A10,10,0,0,0,121.5,33.78Z"/></g><g id="Line_2" data-name="Line 2"><path class="cls-2" d="M31.5,54.55V43.78a10,10,0,0,0-10-10h-5V11.5a10,10,0,0,1,10-10h80a10,10,0,0,1,10,10V33.78h-5a10,10,0,0,0-10,10V54.55"/><path class="cls-2" d="M116.5,33.78h5a10,10,0,0,1,10,10v67.67a5,5,0,0,1-5,5h-20a5,5,0,0,1-5-5v-.23h-70v.23a5,5,0,0,1-5,5H6.5a5,5,0,0,1-5-5V43.78a10,10,0,0,1,10-10h5"/><polygon class="cls-2" points="21.36 123.33 10.36 123.33 9.36 116.45 22.36 116.45 21.36 123.33"/><polygon class="cls-2" points="111.64 123.33 122.64 123.33 123.64 116.45 110.64 116.45 111.64 123.33"/><rect class="cls-2" x="21.21" y="54.55" width="90.59" height="26.67" rx="5" ry="5"/><line class="cls-2" x1="45.62" y1="18" x2="51.8" y2="24.17"/><line class="cls-2" x1="51.8" y1="18" x2="45.62" y2="24.17"/><line class="cls-2" x1="81.2" y1="18" x2="87.38" y2="24.17"/><line class="cls-2" x1="87.38" y1="18" x2="81.2" y2="24.17"/><line class="cls-2" x1="45.62" y1="37.62" x2="51.8" y2="43.8"/><line class="cls-2" x1="51.8" y1="37.62" x2="45.62" y2="43.8"/><line class="cls-2" x1="81.2" y1="37.62" x2="87.38" y2="43.8"/><line class="cls-2" x1="87.38" y1="37.62" x2="81.2" y2="43.8"/></g></g></svg>