<svg xmlns="http://www.w3.org/2000/svg" viewBox="0 0 248.31 151.51"><defs><style>.cls-1{fill:#64a0c2;}.cls-2,.cls-3{fill:none;stroke:#0e0e0e;stroke-width:3px;}.cls-2{stroke-miterlimit:10;}.cls-3{stroke-linecap:round;stroke-linejoin:round;}</style></defs><title>Ресурс 5</title><g id="Слой_2" data-name="Слой 2"><g id="Color_4" data-name="Color 4"><path class="cls-1" d="M239.59,10.49H234a7.22,7.22,0,0,0-7.22,7.22v8.23C204.9,13.35,167.11,1.5,124.15,1.5S43.41,13.35,21.5,25.94V17.71a7.22,7.22,0,0,0-7.22-7.22H8.72A7.22,7.22,0,0,0,1.5,17.71V138.13a5,5,0,0,0,5,5H10L11,150H22l1-6.88h3.5a5,5,0,0,0,5-5V138H216.81v.09a5,5,0,0,0,5,5h3.5l1,6.88h11l1-6.88h3.5a5,5,0,0,0,5-5V17.71A7.22,7.22,0,0,0,239.59,10.49ZM231.9,84.35a5,5,0,0,1-5,5H21.79a5,5,0,0,1-5-5V73.1a5,5,0,0,1,5-5H42.22L42,68c-4.51-2.3-4.51-9.53,0-11.83,8.73-4.44,22.41-9.77,37.78-9.77s29,5.33,37.77,9.77c4.52,2.3,4.52,9.53,0,11.83-.06,0-14.93.07-31.4.11H132l-.22-.11c-4.52-2.3-4.52-9.53,0-11.83,8.73-4.44,22.4-9.77,37.77-9.77s29,5.33,37.78,9.77c4.51,2.3,4.51,9.53,0,11.83-.06,0-14.93.07-31.42.11h51a5,5,0,0,1,5,5Z"/><path class="cls-2" d="M239.59,10.49H234a7.22,7.22,0,0,0-7.22,7.22v8.23C204.9,13.35,167.11,1.5,124.15,1.5S43.41,13.35,21.5,25.94V17.71a7.22,7.22,0,0,0-7.22-7.22H8.72A7.22,7.22,0,0,0,1.5,17.71V138.13a5,5,0,0,0,5,5H10L11,150H22l1-6.88h3.5a5,5,0,0,0,5-5V138H216.81v.09a5,5,0,0,0,5,5h3.5l1,6.88h11l1-6.88h3.5a5,5,0,0,0,5-5V17.71A7.22,7.22,0,0,0,239.59,10.49ZM231.9,84.35a5,5,0,0,1-5,5H21.79a5,5,0,0,1-5-5V73.1a5,5,0,0,1,5-5H42.22L42,68c-4.51-2.3-4.51-9.53,0-11.83,8.73-4.44,22.41-9.77,37.78-9.77s29,5.33,37.77,9.77c4.52,2.3,4.52,9.53,0,11.83-.06,0-14.93.07-31.4.11H132l-.22-.11c-4.52-2.3-4.52-9.53,0-11.83,8.73-4.44,22.4-9.77,37.77-9.77s29,5.33,37.78,9.77c4.51,2.3,4.51,9.53,0,11.83-.06,0-14.93.07-31.42.11h51a5,5,0,0,1,5,5Z"/></g><g id="Line_4" data-name="Line 4"><polygon class="cls-3" points="237.31 150.01 226.31 150.01 225.31 143.13 238.31 143.13 237.31 150.01"/><polygon class="cls-3" points="22 150.01 11 150.01 10 143.13 23 143.13 22 150.01"/><rect class="cls-3" x="16.79" y="68.1" width="215.11" height="21.25" rx="5" ry="5"/><path class="cls-3" d="M246.81,70.6v67.53a5,5,0,0,1-5,5h-20a5,5,0,0,1-5-5V138H31.5v.09a5,5,0,0,1-5,5H6.5a5,5,0,0,1-5-5V70.6"/><path class="cls-3" d="M239.59,10.49H234a7.22,7.22,0,0,0-7.22,7.22v8.23C204.9,13.35,167.11,1.5,124.15,1.5S43.41,13.35,21.5,25.94V17.71a7.22,7.22,0,0,0-7.22-7.22H8.72A7.22,7.22,0,0,0,1.5,17.71V89.35H246.81V17.71A7.22,7.22,0,0,0,239.59,10.49Z"/><path class="cls-3" d="M42,68c.16-.08,74.89-.16,75-.24,4.52-2.3,4.52-9.53,0-11.83-8.73-4.44-22.4-9.77-37.77-9.77s-29,5.33-37.78,9.77c-4.51,2.3-4.51,9.53,0,11.83L42,68"/><path class="cls-3" d="M131.74,68c.16-.08,74.93-.16,75.08-.24,4.51-2.3,4.51-9.53,0-11.83-8.73-4.44-22.41-9.77-37.78-9.77s-29,5.33-37.77,9.77c-4.52,2.3-4.52,9.53,0,11.83l.47.24"/></g></g></svg>