<svg xmlns="http://www.w3.org/2000/svg" viewBox="0 0 351.27 132.93"><defs><style>.cls-1{fill:#64a0c2;}.cls-2{fill:none;stroke:#0e0e0e;stroke-linecap:round;stroke-linejoin:round;stroke-width:3px;}</style></defs><title>Ресурс 1</title><g id="Слой_2" data-name="Слой 2"><g id="Color_1" data-name="Color 1"><path class="cls-1" d="M341.61,33.14l-9.82-1.85a9.92,9.92,0,0,0-6.16.81V11.5a10,10,0,0,0-10-10h-80a10,10,0,0,0-10,10,10,10,0,0,0-10-10h-80a10,10,0,0,0-10,10,10,10,0,0,0-10-10h-80a10,10,0,0,0-10,10V32.09l-.08,0a10,10,0,0,0-6.07-.76L9.65,33.14a10,10,0,0,0-8,11.67l11,58.26a10,10,0,0,0,9.83,8.15H51.8v20.21h11l4-20.21H284.46l4,20.21h11V111.22h29.36a10,10,0,0,0,9.83-8.15l10.94-58.26A10,10,0,0,0,341.61,33.14Z"/></g><g id="Line_1" data-name="Line 1"><path class="cls-2" d="M125.63,64.55V81.22H39l-5-26.54a9.11,9.11,0,0,1,1.58-.13h80a10,10,0,0,1,10,10Z"/><path class="cls-2" d="M225.63,64.55V81.22h-100V64.55a10,10,0,0,1,10-10h80a10,10,0,0,1,10,10Z"/><path class="cls-2" d="M317.22,54.68l-5,26.54h-86.6V64.55a10,10,0,0,1,10-10h80A9.31,9.31,0,0,1,317.22,54.68Z"/><path class="cls-2" d="M34.05,54.68,31.16,39.27a9.93,9.93,0,0,0-5.53-7.18l-.08,0a10,10,0,0,0-6.07-.76L9.65,33.14a10,10,0,0,0-8,11.67l11,58.26a10,10,0,0,0,9.83,8.15H328.82a10,10,0,0,0,9.83-8.15l10.94-58.26a10,10,0,0,0-8-11.67l-9.82-1.85a9.92,9.92,0,0,0-6.16.81l-.08,0a9.93,9.93,0,0,0-5.44,7.13l-2.89,15.41-5,26.54H39"/><polygon class="cls-2" points="62.8 131.43 51.8 131.43 51.8 111.22 66.8 111.22 62.8 131.43"/><polygon class="cls-2" points="288.46 131.43 299.46 131.43 299.46 111.22 284.46 111.22 288.46 131.43"/><path class="cls-2" d="M135.63,1.5h80a10,10,0,0,1,10,10V81.22a0,0,0,0,1,0,0h-100a0,0,0,0,1,0,0V11.5A10,10,0,0,1,135.63,1.5Z"/><path class="cls-2" d="M325.63,11.5V32.1l-.08,0a9.93,9.93,0,0,0-5.44,7.13l-2.89,15.41-5,26.54h-86.6V11.5a10,10,0,0,1,10-10h80A10,10,0,0,1,325.63,11.5Z"/><path class="cls-2" d="M125.63,11.5V81.22H39l-5-26.54L31.16,39.27a9.93,9.93,0,0,0-5.53-7.18V11.5a10,10,0,0,1,10-10h80A10,10,0,0,1,125.63,11.5Z"/><line class="cls-2" x1="154.47" y1="18" x2="160.64" y2="24.17"/><line class="cls-2" x1="160.64" y1="18" x2="154.47" y2="24.17"/><line class="cls-2" x1="190.05" y1="18" x2="196.22" y2="24.17"/><line class="cls-2" x1="196.22" y1="18" x2="190.05" y2="24.17"/><line class="cls-2" x1="154.47" y1="37.62" x2="160.64" y2="43.8"/><line class="cls-2" x1="160.64" y1="37.62" x2="154.47" y2="43.8"/><line class="cls-2" x1="190.05" y1="37.62" x2="196.22" y2="43.8"/><line class="cls-2" x1="196.22" y1="37.62" x2="190.05" y2="43.8"/><line class="cls-2" x1="53.74" y1="18.36" x2="59.92" y2="24.53"/><line class="cls-2" x1="59.92" y1="18.36" x2="53.74" y2="24.53"/><line class="cls-2" x1="89.33" y1="18.36" x2="95.5" y2="24.53"/><line class="cls-2" x1="95.5" y1="18.36" x2="89.33" y2="24.53"/><line class="cls-2" x1="53.74" y1="37.98" x2="59.92" y2="44.16"/><line class="cls-2" x1="59.92" y1="37.98" x2="53.74" y2="44.16"/><line class="cls-2" x1="89.33" y1="37.98" x2="95.5" y2="44.16"/><line class="cls-2" x1="95.5" y1="37.98" x2="89.33" y2="44.16"/><line class="cls-2" x1="254.75" y1="18" x2="260.93" y2="24.17"/><line class="cls-2" x1="260.93" y1="18" x2="254.75" y2="24.17"/><line class="cls-2" x1="290.34" y1="18" x2="296.51" y2="24.17"/><line class="cls-2" x1="296.51" y1="18" x2="290.34" y2="24.17"/><line class="cls-2" x1="254.75" y1="37.62" x2="260.93" y2="43.8"/><line class="cls-2" x1="260.93" y1="37.62" x2="254.75" y2="43.8"/><line class="cls-2" x1="290.34" y1="37.62" x2="296.51" y2="43.8"/><line class="cls-2" x1="296.51" y1="37.62" x2="290.34" y2="43.8"/></g></g></svg>