<svg xmlns="http://www.w3.org/2000/svg" viewBox="0 0 238.52 116.95"><defs><style>.cls-1{fill:#64a0c2;}.cls-2{fill:none;stroke:#0e0e0e;stroke-linecap:round;stroke-linejoin:round;stroke-width:3px;}</style></defs><title>Ресурс 8</title><g id="Слой_2" data-name="Слой 2"><g id="Color_6" data-name="Color 6"><path class="cls-1" d="M88.38,73.81l.24,0,2.95,0H232a5,5,0,0,0,5-5V65.27a5,5,0,0,0-5-5H76.57a10,10,0,0,0,10-10,10,10,0,0,0,10,10h55.22a10,10,0,0,0,10-10,10,10,0,0,0,10,10H227a10,10,0,0,0,10-10V15A10,10,0,0,0,227,5H171.79a10,10,0,0,0-10,10,10,10,0,0,0-10-10H96.57a10,10,0,0,0-10,10,10,10,0,0,0-10-10H11.35V1.5H1.5v114h9.85V103.61H68.17l1,11h11l1-11H93.5l1,11h11l1-11-.7,7.68H218.2l.3,3.27h11l1-11H237V73.81H88.38Z"/></g><g id="Line_6" data-name="Line 6"><path class="cls-2" d="M11.35,5H76.57a10,10,0,0,1,10,10V50.26a10,10,0,0,1-10,10H11.35a0,0,0,0,1,0,0V5A0,0,0,0,1,11.35,5Z"/><path class="cls-2" d="M11.35,5h3.82a10,10,0,0,1,10,10V50.26a10,10,0,0,1-10,10H11.35a0,0,0,0,1,0,0V5A0,0,0,0,1,11.35,5Z"/><polygon class="cls-2" points="229.5 114.56 218.5 114.56 217.5 103.61 230.5 103.61 229.5 114.56"/><polygon class="cls-2" points="105.5 114.56 94.5 114.56 93.5 103.61 106.5 103.61 105.5 114.56"/><polygon class="cls-2" points="80.17 114.56 69.17 114.56 68.17 103.61 81.17 103.61 80.17 114.56"/><rect class="cls-2" x="86.57" y="5.01" width="75.22" height="55.25" rx="10" ry="10"/><rect class="cls-2" x="161.79" y="5.01" width="75.22" height="55.25" rx="10" ry="10"/><path class="cls-2" d="M237,65.27v3.54a5,5,0,0,1-5,5H91.57a5.08,5.08,0,0,1-1.52-.23,5.09,5.09,0,0,0,3.81-4.77V65.27a5.09,5.09,0,0,0-3.81-4.77,5.08,5.08,0,0,1,1.52-.23H232A5,5,0,0,1,237,65.27Z"/><rect class="cls-2" x="86.57" y="73.81" width="150.44" height="29.8"/><rect class="cls-2" x="11.35" y="73.81" width="75.22" height="29.8" transform="translate(97.92 177.42) rotate(180)"/><rect class="cls-2" x="1.5" y="1.5" width="9.85" height="113.95"/><path class="cls-2" d="M90.05,73.58a6.12,6.12,0,0,1-1.67.23h-77V60.27h77a6.12,6.12,0,0,1,1.67.23"/><polygon class="cls-2" points="218.2 111.29 105.8 111.29 106.5 103.61 217.5 103.61 218.2 111.29"/></g></g></svg>