<svg xmlns="http://www.w3.org/2000/svg" viewBox="0 0 273.57 126.19"><defs><style>.cls-1{fill:#64a0c2;}.cls-2,.cls-3{fill:none;}.cls-2,.cls-4{stroke:#0e0e0e;}.cls-2,.cls-3,.cls-4{stroke-linecap:round;stroke-linejoin:round;stroke-width:3px;}.cls-3{stroke:#000;}.cls-4{fill:#f2f2f2;}.cls-5{font-size:37.74px;font-family:MyriadPro-Regular, Myriad Pro;}</style></defs><title>Ресурс 6</title><g id="Слой_2" data-name="Слой 2"><g id="Color_8" data-name="Color 8"><path class="cls-1" d="M221.34,40.25h-4.92V18.1a10,10,0,0,0-10-10h-180a10,10,0,0,0-10,10V40.25H11.5a10,10,0,0,0-10,10v67.56h8.92l1,6.88h11l1-6.88h186l1,6.88h11l1-6.88h8.92V50.25A10,10,0,0,0,221.34,40.25Z"/></g><g id="Line_8" data-name="Line 8"><line class="cls-2" x1="44.76" y1="32.09" x2="44.76" y2="74.99"/><line class="cls-2" x1="59.09" y1="32.09" x2="59.09" y2="74.99"/><line class="cls-2" x1="73.42" y1="32.09" x2="73.42" y2="74.99"/><line class="cls-2" x1="87.76" y1="32.09" x2="87.76" y2="74.99"/><line class="cls-2" x1="102.09" y1="32.09" x2="102.09" y2="74.99"/><line class="cls-2" x1="116.42" y1="32.09" x2="116.42" y2="74.99"/><line class="cls-2" x1="130.76" y1="32.09" x2="130.76" y2="74.99"/><line class="cls-2" x1="145.09" y1="32.09" x2="145.09" y2="74.99"/><line class="cls-2" x1="159.42" y1="32.09" x2="159.42" y2="74.99"/><line class="cls-2" x1="173.76" y1="32.09" x2="173.76" y2="74.99"/><line class="cls-2" x1="188.09" y1="32.09" x2="188.09" y2="74.99"/><polyline class="cls-2" points="224.34 117.81 194.34 117.81 38.5 117.81 30.41 117.81 17.42 117.81 16.42 117.81"/><path class="cls-3" d="M211.34,40.25h10a10,10,0,0,1,10,10v67.57a0,0,0,0,1,0,0h-30a0,0,0,0,1,0,0V50.25A10,10,0,0,1,211.34,40.25Z"/><polygon class="cls-2" points="221.42 124.69 210.42 124.69 209.42 117.81 222.42 117.81 221.42 124.69"/><path class="cls-3" d="M1.5,40.25h30a0,0,0,0,1,0,0v67.57a10,10,0,0,1-10,10h-10a10,10,0,0,1-10-10V40.25A0,0,0,0,1,1.5,40.25Z" transform="translate(33 158.06) rotate(-180)"/><polygon class="cls-2" points="11.42 124.69 22.42 124.69 23.42 117.81 10.42 117.81 11.42 124.69"/><path class="cls-2" d="M216.42,40.25V18.1a10,10,0,0,0-10-10h-180a10,10,0,0,0-10,10V40.25"/><rect class="cls-2" x="31.5" y="74.98" width="169.84" height="20.75"/><ellipse class="cls-4" cx="219.69" cy="52.44" rx="52.38" ry="50.94" transform="translate(-0.34 1.44) rotate(-0.37)"/><text class="cls-5" transform="translate(178.61 66.81) rotate(-0.37) scale(1.03 1)">SALE</text></g></g></svg>