<svg xmlns="http://www.w3.org/2000/svg" viewBox="0 0 232.84 119.6"><defs><style>.cls-1{fill:#64a0c2;}.cls-2,.cls-3{fill:none;}.cls-2,.cls-4{stroke:#0e0e0e;}.cls-2,.cls-3,.cls-4{stroke-linecap:round;stroke-linejoin:round;stroke-width:3px;}.cls-3{stroke:#000;}.cls-4{fill:#f2f2f2;}</style></defs><title>Ресурс 7</title><g id="Слой_2" data-name="Слой 2"><g id="Color_5" data-name="Color 5"><path class="cls-1" d="M221.34,33.65h-4.92V11.5a10,10,0,0,0-10-10h-80a10,10,0,0,0-10,10,10,10,0,0,0-10-10h-80a10,10,0,0,0-10,10V33.65H11.5a10,10,0,0,0-10,10v67.57h8.92l1,6.88h11l1-6.88h186l1,6.88h11l1-6.88h8.92V43.65A10,10,0,0,0,221.34,33.65Z"/></g><g id="Line_5" data-name="Line 5"><path class="cls-2" d="M31.49,54.55h74.93a10,10,0,0,1,10,10V81.22H31.49"/><path class="cls-2" d="M194.34,81.22H116.42V64.55a10,10,0,0,1,10-10h74.92"/><path class="cls-2" d="M38.5,81.22h77.92V11.5a10,10,0,0,0-10-10h-80a10,10,0,0,0-10,10V33.87"/><path class="cls-2" d="M216.42,33.87V11.5a10,10,0,0,0-10-10h-80a10,10,0,0,0-10,10V81.22h77.92"/><polyline class="cls-2" points="201.34 81.22 116.42 81.22 38.5 81.22"/><polyline class="cls-2" points="224.34 111.22 194.34 111.22 38.5 111.22 30.41 111.22 17.42 111.22 16.42 111.22"/><path class="cls-3" d="M211.34,33.65h10a10,10,0,0,1,10,10v67.57a0,0,0,0,1,0,0h-30a0,0,0,0,1,0,0V43.65A10,10,0,0,1,211.34,33.65Z"/><polygon class="cls-2" points="221.42 118.1 210.42 118.1 209.42 111.22 222.42 111.22 221.42 118.1"/><path class="cls-3" d="M1.5,33.65h30a0,0,0,0,1,0,0v67.57a10,10,0,0,1-10,10h-10a10,10,0,0,1-10-10V33.65A0,0,0,0,1,1.5,33.65Z" transform="translate(33 144.88) rotate(-180)"/><polygon class="cls-2" points="11.42 118.1 22.42 118.1 23.42 111.22 10.42 111.22 11.42 118.1"/><line class="cls-2" x1="45.54" y1="15.61" x2="51.72" y2="21.78"/><line class="cls-2" x1="51.72" y1="15.61" x2="45.54" y2="21.78"/><line class="cls-2" x1="81.12" y1="15.61" x2="87.3" y2="21.78"/><line class="cls-2" x1="87.3" y1="15.61" x2="81.12" y2="21.78"/><line class="cls-2" x1="45.54" y1="35.23" x2="51.72" y2="41.41"/><line class="cls-2" x1="51.72" y1="35.23" x2="45.54" y2="41.41"/><line class="cls-2" x1="81.12" y1="35.23" x2="87.3" y2="41.41"/><line class="cls-2" x1="87.3" y1="35.23" x2="81.12" y2="41.41"/><line class="cls-2" x1="145.54" y1="15.61" x2="151.72" y2="21.78"/><line class="cls-2" x1="151.72" y1="15.61" x2="145.54" y2="21.78"/><line class="cls-2" x1="145.54" y1="35.23" x2="151.72" y2="41.41"/><line class="cls-2" x1="151.72" y1="35.23" x2="145.54" y2="41.41"/><path class="cls-4" d="M189,29.65l-5.41,4.11c0,.15,0,.3,0,.46s0,.3,0,.44a8.65,8.65,0,0,0-8,0,3.29,3.29,0,0,0,.05-.44c0-.12,0-.23,0-.34L170,29.71a4.64,4.64,0,0,0,.93,9.16H171a5.51,5.51,0,0,0,.71-.07,8.5,8.5,0,0,0-.76,3.53,8.66,8.66,0,0,0,17.32,0,8.5,8.5,0,0,0-.76-3.53,5.51,5.51,0,0,0,.71.07h.12a4.64,4.64,0,0,0,.66-9.22Z"/><path class="cls-4" d="M191.52,7.23a6.86,6.86,0,0,0-6.6,5,11.85,11.85,0,0,0-5.44-1.33,11.71,11.71,0,0,0-5.15,1.2A6.87,6.87,0,1,0,167.76,21h.05a11.14,11.14,0,0,0-.14,1.74,11.82,11.82,0,0,0,23.63,0,11.4,11.4,0,0,0-.15-1.76l.37,0a6.87,6.87,0,0,0,0-13.73Z"/><circle class="cls-4" cx="179.64" cy="27.11" r="1.11"/><circle class="cls-4" cx="174.94" cy="21.87" r="0.36"/><circle class="cls-4" cx="184.12" cy="21.87" r="0.36"/><ellipse class="cls-4" cx="170.48" cy="49.23" rx="5.2" ry="5.32"/><ellipse class="cls-4" cx="188.8" cy="49.23" rx="5.2" ry="5.32"/></g></g></svg>