<svg xmlns="http://www.w3.org/2000/svg" viewBox="0 0 346.92 132.04"><defs><style>.cls-1{fill:#64a0c2;}.cls-2,.cls-3{fill:none;stroke-linecap:round;stroke-linejoin:round;stroke-width:3px;}.cls-2{stroke:#0e0e0e;}.cls-3{stroke:#000;}</style></defs><title>Ресурс 4</title><g id="Слой_2" data-name="Слой 2"><g id="Color_3" data-name="Color 3"><path class="cls-1" d="M136.67,11.5a10,10,0,0,0-10-10h-80c-8.44,0-33,5.29-37.87,6.62A10,10,0,0,0,.67,17.94V123.66H7.25l1,6.88h11l1-6.88H94.17l1,6.88h11l1-6.88h11.58l17.92-12h186l1,6.88h11l1-6.88h8.92V44.09a10,10,0,0,0-7.92-9.78h0V11.94a10,10,0,0,0-10-10h-80a10,10,0,0,0-10,10,10,10,0,0,0-10-10h-80a10,10,0,0,0-10,10"/></g><g id="Line_3" data-name="Line 3"><path class="cls-2" d="M237.5,65V81.66h-100V65a10,10,0,0,1,10-10h80a10,10,0,0,1,10,10Z"/><path class="cls-2" d="M315.42,81.66H237.5V65a10,10,0,0,1,10-10h67.92"/><path class="cls-2" d="M147.5,1.94h80a10,10,0,0,1,10,10V81.66a0,0,0,0,1,0,0h-100a0,0,0,0,1,0,0V11.94A10,10,0,0,1,147.5,1.94Z"/><path class="cls-2" d="M337.5,34.31V11.94a10,10,0,0,0-10-10h-80a10,10,0,0,0-10,10V81.66h77.92"/><path class="cls-2" d="M1.5,77.66V17.94a10,10,0,0,1,10-10h6.17a10,10,0,0,1,10,10V46.09"/><path class="cls-2" d="M47.5,1.5h6.17a10,10,0,0,1,10,10V46.09"/><path class="cls-2" d="M137.5,11.5a10,10,0,0,0-10-10h-80C38.36,1.5,9,8.24,9,8.24"/><path class="cls-3" d="M325.42,34.09h10a10,10,0,0,1,10,10v67.57a0,0,0,0,1,0,0h-30a0,0,0,0,1,0,0V44.09A10,10,0,0,1,325.42,34.09Z"/><path class="cls-3" d="M109.58,46.09h5.14A4.86,4.86,0,0,1,119.58,51v72.7a0,0,0,0,1,0,0h-10a0,0,0,0,1,0,0V46.09a0,0,0,0,1,0,0Z"/><rect class="cls-3" x="1.5" y="46.09" width="108.09" height="77.57"/><polyline class="cls-2" points="345.42 84.87 345.42 111.66 315.42 111.66 137.5 111.66 137.5 81.66 237.5 81.66 315.42 81.66"/><line class="cls-2" x1="345.42" y1="81.66" x2="345.42" y2="84.87"/><polygon class="cls-2" points="119.58 123.66 137.5 111.66 137.5 81.66 119.58 91.16 119.58 123.66"/><polygon class="cls-2" points="335.5 118.54 324.5 118.54 323.5 111.66 336.5 111.66 335.5 118.54"/><polygon class="cls-2" points="107 130.54 96 130.54 95 123.66 108 123.66 107 130.54"/><polygon class="cls-2" points="20.08 130.54 9.09 130.54 8.09 123.66 21.08 123.66 20.08 130.54"/><path class="cls-2" d="M119.58,56.09l7.92-.1c5.52,0,10,3.47,10,9V81.66l-17.92,9.5Z"/><line class="cls-2" x1="166.62" y1="16.04" x2="172.8" y2="22.22"/><line class="cls-2" x1="172.8" y1="16.04" x2="166.62" y2="22.22"/><line class="cls-2" x1="202.2" y1="16.04" x2="208.38" y2="22.22"/><line class="cls-2" x1="208.38" y1="16.04" x2="202.2" y2="22.22"/><line class="cls-2" x1="166.62" y1="35.67" x2="172.8" y2="41.84"/><line class="cls-2" x1="172.8" y1="35.67" x2="166.62" y2="41.84"/><line class="cls-2" x1="202.2" y1="35.67" x2="208.38" y2="41.84"/><line class="cls-2" x1="208.38" y1="35.67" x2="202.2" y2="41.84"/><line class="cls-2" x1="74.82" y1="16.04" x2="81" y2="22.22"/><line class="cls-2" x1="81" y1="16.04" x2="74.82" y2="22.22"/><line class="cls-2" x1="110.41" y1="16.04" x2="116.58" y2="22.22"/><line class="cls-2" x1="116.58" y1="16.04" x2="110.41" y2="22.22"/><line class="cls-2" x1="74.82" y1="35.67" x2="81" y2="41.84"/><line class="cls-2" x1="81" y1="35.67" x2="74.82" y2="41.84"/><line class="cls-2" x1="110.41" y1="35.67" x2="116.58" y2="41.84"/><line class="cls-2" x1="116.58" y1="35.67" x2="110.41" y2="41.84"/><line class="cls-2" x1="266.62" y1="16.04" x2="272.8" y2="22.22"/><line class="cls-2" x1="272.8" y1="16.04" x2="266.62" y2="22.22"/><line class="cls-2" x1="302.2" y1="16.04" x2="308.38" y2="22.22"/><line class="cls-2" x1="308.38" y1="16.04" x2="302.2" y2="22.22"/><line class="cls-2" x1="266.62" y1="35.67" x2="272.8" y2="41.84"/><line class="cls-2" x1="272.8" y1="35.67" x2="266.62" y2="41.84"/><line class="cls-2" x1="302.2" y1="35.67" x2="308.38" y2="41.84"/><line class="cls-2" x1="308.38" y1="35.67" x2="302.2" y2="41.84"/><line class="cls-2" x1="50" y1="19.69" x2="53.09" y2="22.78"/><line class="cls-2" x1="53.09" y1="16.6" x2="50" y2="19.69"/><line class="cls-2" x1="50" y1="39.32" x2="53.09" y2="42.4"/><line class="cls-2" x1="53.09" y1="36.23" x2="50" y2="39.32"/><line class="cls-2" x1="38" y1="22.63" x2="41.09" y2="25.72"/><line class="cls-2" x1="41.09" y1="19.54" x2="38" y2="22.63"/><line class="cls-2" x1="38" y1="42.25" x2="41.09" y2="45.34"/><line class="cls-2" x1="41.09" y1="39.17" x2="38" y2="42.25"/></g></g></svg>